<?xml version="1.0" encoding="utf-8"?>
<svg xmlns="http://www.w3.org/2000/svg" xmlns:xlink="http://www.w3.org/1999/xlink" width="1748" height="345"><g><rect x="50" y="96" width="98" height="31" style="stroke:rgb(0,0,0); stroke-width:1; fill:rgb(128,255,255)"/><a xlink:href="text.html#2" target="text"><text x="99" y="117" text-anchor="middle" style="font-size:9pt; fill:rgb(0,0,0); font-family:Meiryo; ">ここいろの枝</text></a></g><g><rect x="193" y="96" width="124" height="31" style="stroke:rgb(0,0,0); stroke-width:1; fill:none"/><a xlink:href="text.html#7" target="text"><text x="255" y="117" text-anchor="middle" style="font-size:9pt; fill:rgb(0,0,0); font-family:Meiryo; ">都と親しくなる？</text></a></g><g><rect x="398" y="89" width="217" height="40" rx="5" ry="5" style="stroke:rgb(0,0,0); stroke-width:1; fill:none"/><a xlink:href="text.html#8" target="text"><text x="506" y="100" text-anchor="middle" style="font-size:9pt; fill:rgb(0,0,0); font-family:Meiryo; "><tspan>都が炎のAFユーザを間接的に
</tspan><tspan x="506" dy="20">殺した事実をソフィから聞かない</tspan></text></a></g><g><rect x="650" y="98" width="189" height="31" rx="3" ry="3" style="stroke:rgb(0,0,0); stroke-width:1; fill:none"/><a xlink:href="text.html#10" target="text"><text x="744" y="119" text-anchor="middle" style="font-size:9pt; fill:rgb(0,0,0); font-family:Meiryo; ">恋心が都にバレて恋仲になる</text></a></g><g><rect x="397" y="23" width="216" height="40" rx="5" ry="5" style="stroke:rgb(0,0,0); stroke-width:1; fill:none"/><a xlink:href="text.html#4" target="text"><text x="505" y="34" text-anchor="middle" style="font-size:9pt; fill:rgb(0,0,0); font-family:Meiryo; "><tspan>都が炎のAFユーザを間接的に
</tspan><tspan x="505" dy="20">殺した事実をソフィから聞く</tspan></text></a></g><g><rect x="650" y="32" width="163" height="31" rx="3" ry="3" style="stroke:rgb(0,0,0); stroke-width:1; fill:none"/><a xlink:href="text.html#5" target="text"><text x="731" y="53" text-anchor="middle" style="font-size:9pt; fill:rgb(0,0,0); font-family:Meiryo; ">秘密が都にバレて仲違い</text></a></g><g><rect x="877" y="28" width="254" height="31" rx="3" ry="3" style="stroke:rgb(0,0,0); stroke-width:1; fill:none"/><a xlink:href="text.html#6" target="text"><text x="1004" y="49" text-anchor="middle" style="font-size:9pt; fill:rgb(0,0,0); font-family:Meiryo; ">都が一人で魔眼のユーザと対峙して死亡</text></a></g><g><rect x="875" y="93" width="268" height="40" rx="5" ry="5" style="stroke:rgb(0,0,0); stroke-width:1; fill:none"/><a xlink:href="text.html#11" target="text"><text x="1009" y="104" text-anchor="middle" style="font-size:9pt; fill:rgb(0,0,0); font-family:Meiryo; "><tspan>魔眼のユーザが何故か石化して発見され
</tspan><tspan x="1009" dy="20">自殺したことに</tspan></text></a></g><g><rect x="1202" y="25" width="67" height="31" rx="3" ry="3" style="stroke:rgb(0,0,0); stroke-width:1; fill:rgb(128,128,128)"/><a xlink:href="text.html#12" target="text"><text x="1235" y="46" text-anchor="middle" style="font-size:9pt; fill:rgb(0,0,0); font-family:Meiryo; ">都死亡√</text></a></g><g><rect x="1202" y="101" width="67" height="31" rx="3" ry="3" style="stroke:rgb(0,0,0); stroke-width:1; fill:rgb(128,255,128)"/><a xlink:href="text.html#13" target="text"><text x="1235" y="122" text-anchor="middle" style="font-size:9pt; fill:rgb(0,0,0); font-family:Meiryo; ">都生存√</text></a></g><g><rect x="43" y="290" width="98" height="31" style="stroke:rgb(0,0,0); stroke-width:1; fill:rgb(128,255,255)"/><a xlink:href="text.html#19" target="text"><text x="92" y="311" text-anchor="middle" style="font-size:9pt; fill:rgb(0,0,0); font-family:Meiryo; ">そらいろの枝</text></a></g><g><rect x="408" y="293" width="189" height="31" style="stroke:rgb(0,0,0); stroke-width:1; fill:none"/><a xlink:href="text.html#20" target="text"><text x="502" y="314" text-anchor="middle" style="font-size:9pt; fill:rgb(0,0,0); font-family:Meiryo; ">天からの告白を受け入れる？</text></a></g><g><rect x="662" y="211" width="179" height="40" style="stroke:rgb(0,0,0); stroke-width:1; fill:none"/><a xlink:href="text.html#21" target="text"><text x="751" y="222" text-anchor="middle" style="font-size:9pt; fill:rgb(0,0,0); font-family:Meiryo; "><tspan>天が失踪。
</tspan><tspan x="751" dy="20">しかも天との記憶を失う。</tspan></text></a></g><g><rect x="1202" y="214" width="80" height="31" style="stroke:rgb(0,0,0); stroke-width:1; fill:rgb(128,128,128)"/><a xlink:href="text.html#22" target="text"><text x="1242" y="235" text-anchor="middle" style="font-size:9pt; fill:rgb(0,0,0); font-family:Meiryo; ">天を失う√</text></a></g><g><rect x="1089" y="294" width="239" height="41" style="stroke:rgb(0,0,0); stroke-width:1; fill:none"/><a xlink:href="text.html#26" target="text"><text x="1208" y="305" text-anchor="middle" style="font-size:9pt; fill:rgb(0,0,0); font-family:Meiryo; "><tspan>ゴーストが目覚める。
</tspan><tspan x="1208" dy="20">翔はソフィからAFを得て決戦に挑む</tspan></text></a></g><g><rect x="1364" y="298" width="230" height="32" style="stroke:rgb(0,0,0); stroke-width:1; fill:none"/><a xlink:href="text.html#27" target="text"><text x="1479" y="320" text-anchor="middle" style="font-size:9pt; fill:rgb(0,0,0); font-family:Meiryo; ">ゴーストを殺し、高峰もAFを失う。</text></a></g><g><rect x="1631" y="295" width="107" height="32" style="stroke:rgb(0,0,0); stroke-width:1; fill:rgb(128,255,128)"/><a xlink:href="text.html#28" target="text"><text x="1684" y="317" text-anchor="middle" style="font-size:9pt; fill:rgb(0,0,0); font-family:Meiryo; ">天と結ばれる√</text></a></g><g><rect x="874" y="292" width="157" height="40" style="stroke:rgb(0,0,0); stroke-width:1; fill:none"/><a xlink:href="text.html#23" target="text"><text x="952" y="303" text-anchor="middle" style="font-size:9pt; fill:rgb(0,0,0); font-family:Meiryo; "><tspan>アンブロシア生成が
</tspan><tspan x="952" dy="20">間に合い天が助かる。</tspan></text></a></g><g><rect x="185" y="288" width="196" height="40" style="stroke:rgb(0,0,0); stroke-width:1; fill:none"/><a xlink:href="text.html#25" target="text"><text x="283" y="299" text-anchor="middle" style="font-size:9pt; fill:rgb(0,0,0); font-family:Meiryo; "><tspan>天の力が暴走。天の存在が
</tspan><tspan x="283" dy="20">段々と周囲から忘れられる</tspan></text></a></g><g><rect x="666" y="290" width="157" height="40" style="stroke:rgb(0,0,0); stroke-width:1; fill:none"/><a xlink:href="text.html#24" target="text"><text x="744" y="301" text-anchor="middle" style="font-size:9pt; fill:rgb(0,0,0); font-family:Meiryo; "><tspan>天から過去の想いを
</tspan><tspan x="744" dy="20">カミングアウトされる</tspan></text></a></g><g><path d="M 256 96 C 258 42 258 42 398 42" stroke="rgb(0,0,0)" fill="none" stroke-width="1"/><text x="252" y="48" style="font-size:9pt; fill:rgb(0,0,0); font-family:Meiryo; ">No</text><path d="M 398 42 L 386 37 L 386 47 z" style="fill:rgb(0,0,0); stroke:rgb(0,0,0); stroke-width:1;"/></g><g><line x1="612" y1="45" x2="651" y2="45" style="stroke:rgb(0,0,0); stroke-width:1;"/><path d="M 651 45 L 639 40 L 639 50 z" style="fill:rgb(0,0,0); stroke:rgb(0,0,0); stroke-width:1;"/></g><g><line x1="811" y1="45" x2="878" y2="45" style="stroke:rgb(0,0,0); stroke-width:1;"/><path d="M 878 45 L 866 40 L 866 50 z" style="fill:rgb(0,0,0); stroke:rgb(0,0,0); stroke-width:1;"/></g><g><line x1="316" y1="110" x2="398" y2="110" style="stroke:rgb(0,0,0); stroke-width:1;"/><text x="348" y="116" style="font-size:9pt; fill:rgb(0,0,0); font-family:Meiryo; ">Yes</text><path d="M 398 110 L 386 105 L 386 115 z" style="fill:rgb(0,0,0); stroke:rgb(0,0,0); stroke-width:1;"/></g><g><line x1="614" y1="111" x2="651" y2="111" style="stroke:rgb(0,0,0); stroke-width:1;"/><path d="M 651 111 L 639 106 L 639 116 z" style="fill:rgb(0,0,0); stroke:rgb(0,0,0); stroke-width:1;"/></g><g><line x1="837" y1="113" x2="876" y2="113" style="stroke:rgb(0,0,0); stroke-width:1;"/><path d="M 876 113 L 864 108 L 864 118 z" style="fill:rgb(0,0,0); stroke:rgb(0,0,0); stroke-width:1;"/></g><g><line x1="1141" y1="115" x2="1203" y2="115" style="stroke:rgb(0,0,0); stroke-width:1;"/><path d="M 1203 115 L 1191 110 L 1191 120 z" style="fill:rgb(0,0,0); stroke:rgb(0,0,0); stroke-width:1;"/></g><g><line x1="1129" y1="41" x2="1202" y2="41" style="stroke:rgb(0,0,0); stroke-width:1;"/><path d="M 1202 41 L 1190 36 L 1190 46 z" style="fill:rgb(0,0,0); stroke:rgb(0,0,0); stroke-width:1;"/></g><g><line x1="146" y1="111" x2="194" y2="111" style="stroke:rgb(0,0,0); stroke-width:1;"/><path d="M 194 111 L 182 106 L 182 116 z" style="fill:rgb(0,0,0); stroke:rgb(0,0,0); stroke-width:1;"/></g><g><line x1="140" y1="306" x2="185" y2="306" style="stroke:rgb(0,0,0); stroke-width:1;"/><path d="M 185 306 L 173 301 L 173 311 z" style="fill:rgb(0,0,0); stroke:rgb(0,0,0); stroke-width:1;"/></g><g><line x1="380" y1="308" x2="410" y2="308" style="stroke:rgb(0,0,0); stroke-width:1;"/><path d="M 410 308 L 398 303 L 398 313 z" style="fill:rgb(0,0,0); stroke:rgb(0,0,0); stroke-width:1;"/></g><g><path d="M 506 293 C 518 230 518 230 662 230" stroke="rgb(0,0,0)" fill="none" stroke-width="1"/><text x="509" y="236" style="font-size:9pt; fill:rgb(0,0,0); font-family:Meiryo; ">Yes</text><path d="M 662 230 L 650 225 L 650 235 z" style="fill:rgb(0,0,0); stroke:rgb(0,0,0); stroke-width:1;"/></g><g><line x1="594" y1="309" x2="666" y2="309" style="stroke:rgb(0,0,0); stroke-width:1;"/><text x="624" y="315" style="font-size:9pt; fill:rgb(0,0,0); font-family:Meiryo; ">No</text><path d="M 666 309 L 654 304 L 654 314 z" style="fill:rgb(0,0,0); stroke:rgb(0,0,0); stroke-width:1;"/></g><g><line x1="821" y1="311" x2="875" y2="311" style="stroke:rgb(0,0,0); stroke-width:1;"/><path d="M 875 311 L 863 306 L 863 316 z" style="fill:rgb(0,0,0); stroke:rgb(0,0,0); stroke-width:1;"/></g><g><line x1="840" y1="230" x2="1202" y2="230" style="stroke:rgb(0,0,0); stroke-width:1;"/><path d="M 1202 230 L 1190 225 L 1190 235 z" style="fill:rgb(0,0,0); stroke:rgb(0,0,0); stroke-width:1;"/></g><g><line x1="1029" y1="313" x2="1090" y2="313" style="stroke:rgb(0,0,0); stroke-width:1;"/><path d="M 1090 313 L 1078 308 L 1078 318 z" style="fill:rgb(0,0,0); stroke:rgb(0,0,0); stroke-width:1;"/></g><g><line x1="1325" y1="314" x2="1365" y2="314" style="stroke:rgb(0,0,0); stroke-width:1;"/><path d="M 1365 314 L 1353 309 L 1353 319 z" style="fill:rgb(0,0,0); stroke:rgb(0,0,0); stroke-width:1;"/></g><g><line x1="1592" y1="312" x2="1632" y2="312" style="stroke:rgb(0,0,0); stroke-width:1;"/><path d="M 1632 312 L 1620 307 L 1620 317 z" style="fill:rgb(0,0,0); stroke:rgb(0,0,0); stroke-width:1;"/></g></svg>
